# xmcd
#
# Track frame offsets:
#	150
#	20162
#	36713
#	53556
#	71866
#	89886
#	106066
#	124392
#	141266
#	159615
#	177925
#	189151
#	208792
#	218568
#	242700
#	259847
#	269481
#	284856
#	291444
#
# Disc length: 4103 seconds
#
# Revision: 1
# Processed by: cddbd v1.5.2PL0 Copyright (c) Steve Scherf et al.
# Submitted via: audiograbber 1.83.01
#
DISCID=3f100513
DTITLE=Alain Souchon - Best Of 3CD [CD2)
DYEAR=2009
DGENRE=Variété Française
TTITLE0=Sous Les Jupes Des Filles
TTITLE1=L'Amour A La Machine
TTITLE2=Rive Gauche
TTITLE3=Le Baiser
TTITLE4=Pardon
TTITLE5=Bye Bye Lady Dame
TTITLE6=Tailler La Zone
TTITLE7=C'est Déjà Ca
TTITLE8=Sans Queue Ni Tête
TTITLE9=Le Fil
TTITLE10=Chanter C'est Lancer Des Balles
TTITLE11=Arlette Laguiller
TTITLE12=Les Filles Electriques
TTITLE13=Foule Sentimentale
TTITLE14=Les Regrets
TTITLE15=La Beauté D'Ava Gardner
TTITLE16=Le Bateau Mouche
TTITLE17=On Se Cache Des Choses
TTITLE18=Normandie Lusitania
EXTD=CD2
EXTT0=
EXTT1=
EXTT2=
EXTT3=
EXTT4=
EXTT5=
EXTT6=
EXTT7=
EXTT8=
EXTT9=
EXTT10=
EXTT11=
EXTT12=
EXTT13=
EXTT14=
EXTT15=
EXTT16=
EXTT17=
EXTT18=
PLAYORDER=
